# xmcd
#
# Track frame offsets:
#	150
#	17551
#	30088
#	42589
#	57330
#	69439
#	80608
#	91567
#	104741
#	116719
#
# Disc length: 1735 seconds
# Revision: 0
# Processed by: cddbd v1.5.2PL0 Copyright (c) Steve Scherf et al.
# Submitted via: dBpowerAMP V12.0
#
DISCID=7806c50a
DTITLE=Hank Williams Jr. with the Mike Curb Congregation - All for the Love of Sunshine [MGM] (L)
DYEAR=1900
DGENRE=Country
TTITLE0=All For The Love Of Sunshine
TTITLE1=Wolverton Mountain
TTITLE2=When I Stop Dreaming
TTITLE3=You Win Again
TTITLE4=There Goes My Everything
TTITLE5=Big Midnight Special
TTITLE6=Make The World Go Away
TTITLE7=Your Cheatin' Heart
TTITLE8=I'll Be Your Baby Tonight
TTITLE9=Raini' In My Heart
EXTD=
EXTT0=
EXTT1=
EXTT2=
EXTT3=
EXTT4=
EXTT5=
EXTT6=
EXTT7=
EXTT8=
EXTT9=
PLAYORDER=
